<?xml version="1.0" encoding="UTF-8"?> <!-- Generator: Adobe Illustrator 25.3.1, SVG Export Plug-In . SVG Version: 6.00 Build 0) --> <svg xmlns="http://www.w3.org/2000/svg" xmlns:xlink="http://www.w3.org/1999/xlink" version="1.1" id="b80dd5db-9539-4825-9e54-8e87a2f01b30" x="0px" y="0px" viewBox="0 0 1822.1 251.5" style="enable-background:new 0 0 1822.1 251.5;" xml:space="preserve"> <style type="text/css"> .st0{fill:#008BD2;} .st1{fill:#005CA9;} .st2{fill:#164194;} .st3{fill:#009FE3;} .st4{fill:#0075BF;} .st5{fill:#EE7D00;} .st6{fill:#009BB4;} </style> <path d="M472.2,82.9c0-11.5,1.5-32.1,17.2-32.1c12.2,0,15.8,9.9,16,20.4l23.4-1.5c-2.5-22.9-14.7-36.8-38.7-36.8 c-28.7,0-42.8,22.7-42.8,49.1c0,26,13.8,49.1,42.1,49.1c22,0,37-12.9,39.3-34.8l-21.7-1.4c-1.2,9.2-6.1,17.9-16.5,17.9 C473.7,112.8,472.2,95.9,472.2,82.9 M420,53.1H444V34.2h-70.4v18.9h24.2v76.5H420V53.1z M357.9,121c7.9-7.8,7.8-18.6,7.8-29.1V34.2 h-19.2v57.7c0,5,0.4,11.7-2.6,16c-2.8,3.8-9.3,5.1-13.8,5.1c-5.4,0-11.4-1.4-14.3-6.4c-2.2-3.9-2.1-10.3-2.1-14.7V34.2h-24.2v57.7 c0,11.7,0.4,22.7,9.9,30.9c7.6,6.7,19.2,8.2,29.2,8.2C339,131,350.2,128.6,357.9,121"></path> <polygon class="st0" points="117.1,248.7 85.5,29.1 42.3,35.3 73,248.7 "></polygon> <polygon class="st1" points="161.1,248.7 192,35.3 148.9,29.1 117,248.7 "></polygon> <path class="st2" d="M184.2,248.7c7-25.4,20.7-74.1,28-93.8c4.9-13.2,24.2-53.9,31.3-68.5l-39.3-19c-2.7,5.6-26.5,54.8-33,72.5 C162,165.1,144,230.5,139,248.7L184.2,248.7z"></path> <polygon class="st3" points="0,157 0,157 36.7,248.7 83.7,248.7 40.5,140.8 "></polygon> <rect x="95.3" class="st4" width="43.6" height="248.7"></rect> <polygon class="st1" points="95.3,248.7 117.1,248.7 95.3,97.6 "></polygon> <polygon class="st2" points="117,248.7 139,248.7 139,97.2 "></polygon> <polygon class="st4" points="73,248.7 83.7,248.7 67,207 "></polygon> <path d="M795,34.4h-60.2v95.1h61.6v-10.3h-49.6V84.4H785v-9.6h-38.3V44.6H795V34.4z M665.1,34.4h-11.9v95.1h11.9V84.3h44.1v45.2 h11.9V34.4h-11.9v39.5h-44.1V34.4z M576.8,101.4l-10.7,2.4c6.4,18.4,19.1,27,38.5,27c8.6,0,17.9-1.7,24.8-6.9 c6.8-5.1,10.8-13.1,10.7-21.6c0.1-7.3-3.1-14.3-8.9-18.9c-4.8-4.1-11.1-6-17.3-7.4l-14.3-3.5c-8.9-2.1-17.2-4.4-17.2-15.1 c0-10.4,11.4-15.1,20.4-15.1c10.1,0,21.2,6.4,23.3,16.8l10.8-2.9c-5.1-15.4-17.9-23.3-33.8-23.3c-16.5,0-32.3,7.9-32.3,26.2 c0,6.7,2.8,13.1,7.8,17.6c5,4.6,10.8,6.1,17.2,7.6l15.8,3.9c8.3,2.1,16.2,6,16.2,15.5c0,4.7-2.2,9.2-5.8,12.2 c-4.4,3.5-11.4,4.7-17.1,4.7C591.7,120.7,580.7,114.6,576.8,101.4 M821.3,44.5h46.3V34.4h-58.2v95.1h11.9V84.4h38.4v-9.6h-38.4 L821.3,44.5z M890.2,44.5h46.3V34.4h-58.2v95.1h11.9V84.4h38.4v-9.6h-38.4L890.2,44.5z M947.2,129.4h11.9v-95h-11.9V129.4z M974.9,129.4h61.5v-10.2h-49.6V84.4h38.3v-9.6h-38.3V44.6h48.2V34.4h-60.2L974.9,129.4z M1048.3,129.4h56.2v-10.5h-44.2V34.4h-11.9 L1048.3,129.4z M1177.3,81.6c0,8.6-2.2,18.4-6.9,25.6c-6.2,9.6-14.9,12.1-25.9,12.1H1127v-75h17.5c10,0,17.6,1.5,24.1,9.7 C1174.8,61.8,1177.3,71.9,1177.3,81.6 M1189.4,81.6c0-12.3-3.3-24.3-11.5-33.8c-9-10.7-19.1-13.4-32.7-13.4h-30.1v95.1h34 c13,0,22.9-4.4,30.5-15.1C1186.4,104.8,1189.4,93.3,1189.4,81.6"></path> <path class="st5" d="M331.1,251.5c-9.1,0-16.7-1.4-22.8-4.3c-5.7-2.5-10.8-6.3-14.8-11.1c-3.7-4.6-6.5-9.9-8.1-15.6 c-1.6-5.7-2.5-11.7-2.5-17.6c0-6,0.8-11.9,2.5-17.7c1.6-5.7,4.3-11,8.1-15.6c4-4.8,9.1-8.6,14.8-11.1c6.1-2.8,13.7-4.3,22.8-4.3 c8.9,0,16.4,1.4,22.6,4.3c5.7,2.5,10.8,6.3,14.8,11.1c3.7,4.6,6.5,9.9,8.1,15.6c1.6,5.8,2.5,11.7,2.5,17.7c0,6-0.8,11.9-2.5,17.6 c-1.6,5.7-4.3,11-8.1,15.6c-4,4.8-9.1,8.6-14.8,11.1C347.5,250.1,340,251.5,331.1,251.5z M331.1,227c4.6,0.1,9-2.2,11.5-6.1 c2.8-4.1,4.2-10,4.2-17.9s-1.4-13.9-4.2-18.1c-2.5-3.9-6.8-6.2-11.5-6.1c-4.7-0.2-9.1,2.2-11.7,6.1c-2.8,4.1-4.2,10.1-4.2,18.1 s1.4,14,4.2,17.9C321.9,224.8,326.4,227.1,331.1,227z"></path> <path class="st5" d="M386.1,226.4v-46.9h-5.9c-0.2-2-0.3-3.9-0.4-5.7s-0.1-3.8-0.1-5.7s0-3.9,0.1-5.7s0.2-3.8,0.4-5.7h42.2 c0.2,2,0.3,3.9,0.4,5.7c0.1,1.9,0.1,3.8,0.1,5.7s0,3.9-0.1,5.7s-0.2,3.8-0.4,5.7h-7.2V226h15.5v-14.8c2.1-0.2,4.2-0.3,6.4-0.4 c2.1-0.1,4.3-0.1,6.5-0.1c2.2,0,4.3,0,6.4,0.1c2.1,0.1,4.2,0.2,6.4,0.4v38h-76.2c-0.2-1.9-0.3-3.9-0.4-5.7c-0.1-1.9-0.1-3.8-0.1-5.7 s0-3.9,0.1-5.7s0.2-3.8,0.4-5.7L386.1,226.4z"></path> <path class="st5" d="M469.3,226.4v-12.9l-25.1-34.1h-6.4c-0.2-2-0.3-3.9-0.4-5.7s-0.1-3.8-0.1-5.7s0-3.9,0.1-5.7s0.2-3.8,0.4-5.7 h43.5c0.2,1.9,0.3,3.7,0.4,5.5s0.1,3.7,0.1,5.5s0,3.7-0.1,5.5s-0.2,3.6-0.4,5.5H477l8.5,15.4l9.2-15.4h-4.3 c-0.2-1.9-0.3-3.7-0.4-5.5s-0.1-3.6-0.1-5.5s0-3.7,0.1-5.5s0.2-3.7,0.4-5.5h41.3c0.2,2,0.3,3.9,0.4,5.7c0.1,1.9,0.1,3.8,0.1,5.7 s0,3.9-0.1,5.7s-0.2,3.8-0.4,5.7h-6.4l-25.1,34.1v12.9h7.4c0.2,2,0.3,3.9,0.4,5.7s0.1,3.8,0.1,5.7s0,3.9-0.1,5.7s-0.2,3.8-0.4,5.7 H462c-0.2-2-0.3-3.9-0.4-5.7s-0.1-3.8-0.1-5.7s0-3.9,0.1-5.7s0.2-3.8,0.4-5.7H469.3z"></path> <path class="st5" d="M544.1,226.4v-46.9h-5.8c-0.2-2-0.3-3.9-0.4-5.7s-0.1-3.8-0.1-5.7s0-3.9,0.1-5.7s0.2-3.8,0.4-5.7h40.1 l15.9,51.4l16-51.4h40.2c0.2,2,0.3,3.9,0.4,5.7s0.1,3.8,0.1,5.7s0,3.9-0.1,5.7s-0.2,3.8-0.4,5.7h-5.8v47h5.8c0.2,2,0.3,3.9,0.4,5.7 s0.1,3.8,0.1,5.7s0,3.9-0.1,5.7s-0.2,3.8-0.4,5.7h-34.3v-49.4l-12.7,47.5h-19.3l-12.7-47.5v49.4h-33.2c-0.2-2-0.3-3.9-0.4-5.7 s-0.1-3.8-0.1-5.7s0-3.9,0.1-5.7s0.2-3.8,0.4-5.7L544.1,226.4z"></path> <path class="st5" d="M663.1,226.4v-46.9h-5.8c-0.2-2-0.3-3.9-0.4-5.7s-0.1-3.8-0.1-5.7s0-3.9,0.1-5.7s0.2-3.8,0.4-5.7h48.7 c4.6-0.1,9.2,0.7,13.5,2.3c3.7,1.4,7,3.5,9.9,6.3c2.6,2.7,4.7,5.8,6,9.4c1.4,3.7,2,7.6,2,11.6c0,3.6-0.6,7.2-1.6,10.6 c-1,3.6-2.8,6.9-5.3,9.7c-2.7,3-6,5.4-9.7,7.1c-4,1.8-9,2.7-14.9,2.7h-14.2v10.2h12c0.2,1.9,0.3,3.9,0.4,5.7 c0.1,1.9,0.1,3.8,0.1,5.7s0,3.9-0.1,5.7s-0.2,3.8-0.4,5.7h-46.5c-0.2-1.9-0.3-3.9-0.4-5.7c-0.1-1.9-0.1-3.8-0.1-5.7s0-3.9,0.1-5.7 s0.2-3.8,0.4-5.7H663.1z M701.6,193.8c1.8,0.1,3.5-0.7,4.7-2c1.3-1.5,1.9-3.4,1.8-5.4c0-1.9-0.6-3.7-1.8-5.2 c-1.1-1.4-2.9-2.2-4.7-2.2h-9.9v14.8L701.6,193.8z"></path> <path class="st5" d="M746.3,226.4v-46.9h-5.8c-0.2-2-0.3-3.9-0.4-5.7s-0.1-3.8-0.1-5.7s0-3.9,0.1-5.7s0.2-3.8,0.4-5.7h42.6 c0.2,2,0.3,3.9,0.4,5.7s0.1,3.8,0.1,5.7s0,3.9-0.1,5.7s-0.2,3.8-0.4,5.7h-5.8v46.9h5.8c0.2,2,0.3,3.9,0.4,5.7s0.1,3.8,0.1,5.7 s0,3.9-0.1,5.7s-0.2,3.8-0.4,5.7h-42.6c-0.2-2-0.3-3.9-0.4-5.7s-0.1-3.8-0.1-5.7s0-3.9,0.1-5.7s0.2-3.8,0.4-5.7H746.3z"></path> <path class="st5" d="M839.2,189.8c0-3.6-0.8-6.3-2.3-8.2s-3.8-2.9-6.9-2.9c-9,0-13.5,7.5-13.5,22.4c-0.1,3.6,0.4,7.2,1.4,10.7 c0.8,2.6,2.2,5.1,4.2,7c1.9,1.8,4.3,3.1,6.8,3.9c3,0.8,6.1,1.2,9.2,1.2c3.4,0,6.8-0.3,10-1.1c2.8-0.6,5.5-1.5,8.1-2.7 c2.1-0.9,4.2-2,6.1-3.3c1.7-1.1,3-2.1,3.9-2.9v30.4c-0.8,0.4-2.1,1-3.8,1.9c-2.1,1-4.4,1.8-6.6,2.4c-3.2,0.9-6.5,1.5-9.8,2 c-4.4,0.6-8.9,0.9-13.4,0.9c-15.9,0-28-4.2-36.2-12.7c-8.2-8.5-12.3-20.4-12.3-35.8c-0.1-6.8,0.9-13.6,3-20.1 c1.8-5.6,4.6-10.9,8.4-15.4c3.5-4.2,8-7.6,13-9.9c5.3-2.3,11-3.5,16.7-3.4c5.1,0,9,0.6,11.8,1.7c2.3,0.9,4.5,2,6.6,3.2v-2.7 c2-0.2,3.9-0.3,5.8-0.4c1.9-0.1,3.8-0.1,5.8-0.1s3.9,0,5.8,0.1s3.9,0.2,5.8,0.4V200c-2.4,0.2-4.7,0.3-7.1,0.4s-4.6,0.1-6.9,0.1 c-2.4,0-4.7,0-7-0.1c-2.3-0.1-4.6-0.2-6.9-0.4L839.2,189.8z"></path> <path class="st6" d="M902.6,226.4v-46.9h-5.8c-0.2-1.9-0.3-3.9-0.4-5.7c-0.1-1.9-0.1-3.8-0.1-5.7s0-3.9,0.1-5.7s0.2-3.8,0.4-5.7H939 c0.2,2,0.3,3.9,0.4,5.7c0.1,1.9,0.1,3.8,0.1,5.7s0,3.9-0.1,5.7s-0.2,3.8-0.4,5.7h-7.2V226h15.5v-14.8c2.1-0.2,4.2-0.3,6.4-0.4 s4.3-0.1,6.5-0.1c2.2,0,4.3,0,6.4,0.1c2.1,0.1,4.2,0.2,6.4,0.4v38h-76.2c-0.2-2-0.3-3.9-0.4-5.7s-0.1-3.8-0.1-5.7s0-3.9,0.1-5.7 s0.2-3.8,0.4-5.7L902.6,226.4z"></path> <path class="st6" d="M984.9,226.4v-46.9H979c-0.2-1.9-0.3-3.9-0.4-5.7c-0.1-1.9-0.1-3.8-0.1-5.7s0-3.9,0.1-5.7s0.2-3.8,0.4-5.7h80 v28.4c-2.3,0.2-4.6,0.3-6.9,0.4c-2.3,0.1-4.6,0.1-6.9,0.1s-4.6,0-6.9-0.1s-4.6-0.2-6.9-0.4v-5.3h-15.8v10.5h30.3 c0.2,2,0.3,4.1,0.4,6.1s0.1,4,0.1,6s-0.1,4-0.1,6s-0.2,4-0.4,5.9h-30.3v11.3h16.4v-5.9c4.1-0.3,8.2-0.4,12.5-0.4 c2.5,0,5.1,0,7.6,0.1s5,0.2,7.6,0.4v29.5H979c-0.2-2-0.3-3.9-0.4-5.7s-0.1-3.8-0.1-5.7s0-3.9,0.1-5.7s0.2-3.8,0.4-5.7L984.9,226.4z"></path> <path class="st6" d="M1117.8,219.1h-5.2c-0.2-2-0.3-3.8-0.4-5.6s-0.1-3.6-0.1-5.5s0-3.7,0.1-5.5s0.2-3.7,0.4-5.7h40.5 c0.2,2,0.3,3.8,0.4,5.7s0.1,3.7,0.1,5.5s-0.1,3.7-0.1,5.5s-0.2,3.6-0.4,5.6h-4.3V243c-0.7,0.3-2.1,1-4.3,1.9 c-2.7,1.1-5.5,2.1-8.3,2.9c-3.9,1.1-7.8,2-11.8,2.6c-4.9,0.8-9.8,1.2-14.8,1.1c-8.5,0-15.8-1.2-21.8-3.7 c-11.5-4.4-20.2-13.8-23.7-25.6c-1.9-6.3-2.9-12.8-2.8-19.3c-0.1-6.7,1-13.4,3.1-19.8c1.8-5.7,4.8-10.9,8.7-15.4 c3.8-4.2,8.4-7.6,13.6-9.9c5.6-2.4,11.7-3.7,17.9-3.6c3.7,0,7.4,0.5,10.9,1.4c3.2,0.7,6.3,2,9.2,3.7v-2.8c3.9-0.2,7.8-0.4,11.8-0.4 c3.6,0,7.1,0.1,10.7,0.4V192c-2.4,0.2-4.7,0.3-7.1,0.4s-4.6,0.1-6.9,0.1c-2.4,0-4.7,0-7-0.1s-4.6-0.2-6.9-0.4v-4.8 c0-2.4-0.9-4.6-2.7-6.2c-1.8-1.7-4.3-2.5-7.5-2.5c-2.3,0-4.6,0.6-6.6,1.9c-2,1.3-3.7,3-4.9,5.1c-1.4,2.4-2.4,5-3,7.7 c-0.7,3.2-1,6.5-1,9.8c-0.1,3.9,0.4,7.8,1.5,11.5c0.8,2.7,2.1,5.3,3.9,7.5c1.5,1.8,3.4,3.2,5.6,4.1c2,0.8,4.2,1.2,6.4,1.2 c1.5,0,3-0.1,4.5-0.2c0.8-0.1,1.6-0.2,2.3-0.4L1117.8,219.1z"></path> <path class="st6" d="M1161.6,226.4l23.7-69.8h39.6l22.6,69.8h6.4c0.2,1.9,0.3,3.9,0.4,5.7c0.1,1.9,0.1,3.8,0.1,5.7s0,3.9-0.1,5.7 s-0.2,3.8-0.4,5.7h-44.3c-0.2-1.7-0.3-3.4-0.4-5.1s-0.1-3.5-0.1-5.1s0.1-3.4,0.1-5s0.2-3.3,0.4-5h5.2l-1.5-6.9h-18.8l-1.5,6.9h5.2 c0.2,1.7,0.3,3.4,0.4,5s0.1,3.3,0.1,5s-0.1,3.4-0.1,5.1s-0.2,3.5-0.4,5.1h-43.4c-0.2-2-0.3-3.9-0.4-5.7s-0.1-3.8-0.1-5.7 s0-3.9,0.1-5.7s0.2-3.8,0.4-5.7H1161.6z M1209.8,201.8l-5.6-22l-6,22H1209.8z"></path> <path class="st6" d="M1307.5,189.8c0-3.6-0.8-6.3-2.3-8.2c-1.5-1.9-3.8-2.9-6.9-2.9c-9,0-13.5,7.5-13.5,22.4 c-0.1,3.6,0.4,7.2,1.4,10.7c0.8,2.7,2.2,5.1,4.2,7c1.9,1.8,4.3,3.1,6.8,3.9c3,0.9,6.1,1.3,9.2,1.2c3.4,0,6.7-0.3,10-1.1 c2.8-0.6,5.5-1.5,8.2-2.7c2.1-0.9,4.2-2,6.1-3.3c1.7-1.1,3-2.1,4-2.9v30.4c-0.8,0.4-2.1,1-3.8,1.8c-2.1,1-4.4,1.8-6.6,2.4 c-3.2,0.9-6.5,1.5-9.8,2c-4.4,0.6-8.9,0.9-13.4,0.9c-15.9,0-28-4.2-36.2-12.7c-8.2-8.5-12.3-20.4-12.3-35.7 c-0.1-6.8,0.9-13.6,3-20.1c1.8-5.6,4.6-10.9,8.4-15.5c3.5-4.2,8-7.6,13-9.9c5.3-2.3,11-3.5,16.7-3.4c5.1,0,9,0.6,11.8,1.7 c2.3,0.9,4.5,2,6.6,3.2v-2.7c1.9-0.2,3.9-0.3,5.8-0.4s3.8-0.1,5.8-0.1s3.9,0,5.8,0.1s3.9,0.2,5.8,0.4V200c-2.4,0.2-4.7,0.3-7.1,0.4 s-4.6,0.1-6.9,0.1s-4.7,0-7-0.1s-4.6-0.2-6.9-0.4L1307.5,189.8z"></path> <path class="st6" d="M1372.2,226.4v-12.9l-25.1-34.1h-6.4c-0.2-1.9-0.3-3.9-0.4-5.7c-0.1-1.9-0.1-3.8-0.1-5.7s0-3.9,0.1-5.7 s0.2-3.8,0.4-5.7h43.5c0.2,1.9,0.3,3.7,0.4,5.5s0.1,3.7,0.1,5.5s0,3.7-0.1,5.5s-0.2,3.6-0.4,5.5h-4.4l8.5,15.4l9.2-15.4h-4.3 c-0.2-1.9-0.3-3.7-0.4-5.5s-0.1-3.6-0.1-5.5s0-3.7,0.1-5.5s0.2-3.7,0.4-5.5h41.3c0.2,2,0.3,3.9,0.4,5.7c0.1,1.9,0.1,3.8,0.1,5.7 s0,3.9-0.1,5.7s-0.2,3.8-0.4,5.7h-6.4l-25.1,34.1v12.9h7.4c0.2,2,0.3,3.9,0.4,5.7s0.1,3.8,0.1,5.7s0,3.9-0.1,5.7s-0.2,3.8-0.4,5.7 h-45.7c-0.2-2-0.3-3.9-0.4-5.7s-0.1-3.8-0.1-5.7s0-3.9,0.1-5.7s0.2-3.8,0.4-5.7H1372.2z"></path> <path class="st6" d="M1470.8,226.4v-46.9h-5.8c-0.2-1.9-0.3-3.9-0.4-5.7c-0.1-1.9-0.1-3.8-0.1-5.7s0-3.9,0.1-5.7s0.2-3.8,0.4-5.7 h48.7c4.6-0.1,9.2,0.7,13.5,2.3c3.7,1.4,7,3.5,9.9,6.3c2.6,2.7,4.7,5.8,6,9.4c1.4,3.7,2,7.6,2,11.6c0,3.6-0.6,7.2-1.6,10.6 c-1,3.6-2.8,6.9-5.3,9.7c-2.7,3-6,5.4-9.7,7c-4,1.8-9,2.7-14.9,2.7h-14.2v10.2h12c0.2,1.9,0.3,3.9,0.4,5.7c0.1,1.9,0.1,3.8,0.1,5.7 s0,3.9-0.1,5.7s-0.2,3.8-0.4,5.7H1465c-0.2-2-0.3-3.9-0.4-5.7s-0.1-3.8-0.1-5.7s0-3.9,0.1-5.7s0.2-3.8,0.4-5.7H1470.8z M1509.4,193.8c1.8,0.1,3.5-0.7,4.7-2c1.3-1.5,1.9-3.4,1.8-5.4c0-1.9-0.6-3.7-1.8-5.2c-1.1-1.4-2.9-2.2-4.7-2.2h-9.9v14.7 L1509.4,193.8z"></path> <path class="st6" d="M1540.1,226.4l23.7-69.8h39.6l22.6,69.8h6.3c0.2,1.9,0.3,3.9,0.4,5.7c0.1,1.9,0.1,3.8,0.1,5.7s0,3.9-0.1,5.7 s-0.2,3.8-0.4,5.7h-44.3c-0.2-1.7-0.3-3.4-0.4-5.1s-0.1-3.5-0.1-5.1s0-3.4,0.1-5s0.2-3.3,0.4-5h5.2l-1.5-6.9H1573l-1.5,6.9h5.2 c0.2,1.7,0.3,3.4,0.4,5s0.1,3.3,0.1,5s0,3.4-0.1,5.1s-0.2,3.5-0.4,5.1h-43.4c-0.2-2-0.3-3.9-0.4-5.7s-0.1-3.8-0.1-5.7s0-3.9,0.1-5.7 s0.2-3.8,0.4-5.7H1540.1z M1588.4,201.8l-5.6-22l-6,22H1588.4z"></path> <path class="st6" d="M1644.8,226.4v-46.9h-5.8c-0.2-1.9-0.3-3.9-0.4-5.7c-0.1-1.9-0.1-3.8-0.1-5.7s0-3.9,0.1-5.7s0.2-3.8,0.4-5.7 h50.9c4.5-0.1,9,0.7,13.3,2.4c3.7,1.4,7.1,3.6,10,6.4c2.7,2.7,4.8,5.9,6.3,9.5c1.5,3.7,2.3,7.6,2.2,11.5c0,1.9-0.2,3.9-0.6,5.8 c-0.4,2.3-1.1,4.5-2,6.6c-1,2.3-2.2,4.5-3.8,6.5c-1.6,2.2-3.6,4.1-5.8,5.6l8.4,15.5h8.1c0.2,1.9,0.3,3.9,0.4,5.7s0.1,3.8,0.1,5.7 c0,2,0,3.9-0.1,5.7s-0.2,3.8-0.4,5.7h-30.8l-15.5-33.3h-6.3v10.4h5.7c0.2,1.9,0.3,3.9,0.4,5.7c0.1,1.9,0.1,3.8,0.1,5.7 c0,2,0,3.9-0.1,5.7s-0.2,3.8-0.4,5.7H1639c-0.2-2-0.3-3.9-0.4-5.7s-0.1-3.8-0.1-5.7s0-3.9,0.1-5.7s0.2-3.8,0.4-5.7H1644.8z M1685.2,193.8c2,0.1,3.9-0.6,5.3-2c2.6-3.1,2.6-7.6,0-10.8c-1.3-1.3-3.1-2.1-5-2h-12v14.8H1685.2z"></path> <path class="st6" d="M1738.4,226.4v-46.9h-5.8c-0.2-1.9-0.3-3.9-0.4-5.7c-0.1-1.9-0.1-3.8-0.1-5.7s0-3.9,0.1-5.7s0.2-3.8,0.4-5.7 h38.3c0.2,1.9,0.3,3.7,0.4,5.5s0.1,3.6,0.1,5.3s0,3.6-0.1,5.4s-0.2,3.6-0.4,5.4h-3.4v12.7l15-12.7h-3.9c-0.2-1.8-0.3-3.6-0.4-5.4 s-0.1-3.6-0.1-5.4s0-3.6,0.1-5.3s0.2-3.6,0.4-5.5h41.8c0.2,2,0.3,3.9,0.4,5.7c0.1,1.9,0.1,3.8,0.1,5.7s0,3.9-0.1,5.7 s-0.2,3.8-0.4,5.7h-7.2l-17.9,15l20.1,31.9h6.4c0.2,1.9,0.3,3.9,0.4,5.7c0.1,1.9,0.1,3.8,0.1,5.7s0,3.9-0.1,5.7s-0.2,3.8-0.4,5.7 h-29.5l-20.3-35.2l-4.3,3.6v8.8h5.3c0.2,2,0.3,3.9,0.4,5.7s0.1,3.8,0.1,5.7s-0.1,3.9-0.1,5.7s-0.2,3.8-0.4,5.7h-40.2 c-0.2-2-0.3-3.9-0.4-5.7s-0.1-3.8-0.1-5.7s0-3.9,0.1-5.7s0.2-3.8,0.4-5.7H1738.4z"></path> </svg> 